HIERARCHY
ROOT Hips
{
	OFFSET 0.000000 0.000000 0.000000
	CHANNELS 6 Xposition Yposition Zposition Xrotation Yrotation Zrotation
	JOINT LeftUpLeg_virtual
	{
		OFFSET 0.000000 0.000000 0.000000
		CHANNELS 3 Xrotation Yrotation Zrotation
		JOINT LeftUpLeg
		{
			OFFSET 10.205400 -3.823500 0.155100
			CHANNELS 3 Xrotation Yrotation Zrotation
			JOINT LeftLeg
			{
				OFFSET 0.708757 -12.982077 0.567790
				CHANNELS 3 Xrotation Yrotation Zrotation
				JOINT LeftFoot
				{
					OFFSET -0.708756 -10.717838 -2.184338
					CHANNELS 3 Xrotation Yrotation Zrotation
					JOINT LeftToeBase
					{
						OFFSET 0.108149 -7.191104 7.560241
						CHANNELS 3 Xrotation Yrotation Zrotation
						JOINT LeftToe_End
						{
							OFFSET 0.070230 0.081724 4.490308
							CHANNELS 3 Xrotation Yrotation Zrotation
							End Site
							{
								OFFSET 0 0 0
							}
						}
					}
				}
			}
		}
	}
	JOINT RightUpLeg_virtual
	{
		OFFSET 0.000000 0.000000 0.000000
		CHANNELS 3 Xrotation Yrotation Zrotation
		JOINT RightUpLeg
		{
			OFFSET -10.205400 -3.823500 0.005500
			CHANNELS 3 Xrotation Yrotation Zrotation
			JOINT RightLeg
			{
				OFFSET -0.708756 -12.982134 0.610632
				CHANNELS 3 Xrotation Yrotation Zrotation
				JOINT RightFoot
				{
					OFFSET 0.708754 -10.717769 -1.945823
					CHANNELS 3 Xrotation Yrotation Zrotation
					JOINT RightToeBase
					{
						OFFSET -0.108140 -7.191069 7.372968
						CHANNELS 3 Xrotation Yrotation Zrotation
						JOINT RightToe_End
						{
							OFFSET -0.070227 0.081735 4.479403
							CHANNELS 3 Xrotation Yrotation Zrotation
							End Site
							{
								OFFSET 0 0 0
							}
						}
					}
				}
			}
		}
	}
	JOINT Spine_virtual
	{
		OFFSET 0.000000 0.000000 0.000000
		CHANNELS 3 Xrotation Yrotation Zrotation
		JOINT Spine
		{
			OFFSET 0.000000 6.876099 0.125700
			CHANNELS 3 Xrotation Yrotation Zrotation
			JOINT Spine1
			{
				OFFSET 0.000000 5.730043 0.104720
				CHANNELS 3 Xrotation Yrotation Zrotation
				JOINT Spine1_split
				{
					OFFSET 0.000000 5.730043 0.104720
					CHANNELS 3 Xrotation Yrotation Zrotation
					JOINT Spine2
					{
						OFFSET 0.000000 5.730043 0.104720
						CHANNELS 3 Xrotation Yrotation Zrotation
						JOINT Neck_virtual
						{
							OFFSET 0.000000 0.000000 0.000000
							CHANNELS 3 Xrotation Yrotation Zrotation
							JOINT Neck
							{
								OFFSET 0.000000 10.314075 0.188496
								CHANNELS 3 Xrotation Yrotation Zrotation
								JOINT Head
								{
									OFFSET 0.000000 7.643700 -2.377400
									CHANNELS 3 Xrotation Yrotation Zrotation
									JOINT HeadTop_End
									{
										OFFSET 0.000000 43.788605 -13.619600
										CHANNELS 3 Xrotation Yrotation Zrotation
										End Site
										{
											OFFSET 0 0 0
										}
									}
								}
							}
						}
						JOINT LeftShoulder_virtual
						{
							OFFSET 0.000000 0.000000 0.000000
							CHANNELS 3 Xrotation Yrotation Zrotation
							JOINT LeftShoulder
							{
								OFFSET 2.196100 4.412489 0.087492
								CHANNELS 3 Xrotation Yrotation Zrotation
								JOINT LeftShoulder_split
								{
									OFFSET 2.196100 4.412489 0.087492
									CHANNELS 3 Xrotation Yrotation Zrotation
									JOINT LeftArm
									{
										OFFSET 8.771219 -2.981674 -0.026999
										CHANNELS 3 Xrotation Yrotation Zrotation
										JOINT LeftForeArm
										{
											OFFSET 8.512804 0.000000 -0.000000
											CHANNELS 3 Xrotation Yrotation Zrotation
											JOINT LeftHand
											{
												OFFSET 18.484802 0.000000 -0.000000
												CHANNELS 3 Xrotation Yrotation Zrotation
												End Site
												{
													OFFSET 0 0 0
												}
											}
										}
									}
								}
							}
						}
						JOINT RightShoulder_virtual
						{
							OFFSET 0.000000 0.000000 0.000000
							CHANNELS 3 Xrotation Yrotation Zrotation
							JOINT RightShoulder
							{
								OFFSET -2.196100 4.412496 0.070690
								CHANNELS 3 Xrotation Yrotation Zrotation
								JOINT RightShoulder_split
								{
									OFFSET -2.196100 4.412496 0.070690
									CHANNELS 3 Xrotation Yrotation Zrotation
									JOINT RightArm
									{
										OFFSET -8.771282 -2.981682 -0.094208
										CHANNELS 3 Xrotation Yrotation Zrotation
										JOINT RightForeArm
										{
											OFFSET -8.494598 0.000000 0.000000
											CHANNELS 3 Xrotation Yrotation Zrotation
											JOINT RightHand
											{
												OFFSET -18.483803 0.000000 0.000001
												CHANNELS 3 Xrotation Yrotation Zrotation
												End Site
												{
													OFFSET 0 0 0
												}
											}
										}
									}
								}
							}
						}
					}
				}
			}
		}
	}
}
MOTION
Frames: 4
Frame Time: 0.03333333
0.656067 4.533817 -1.060074 0.000000 0.000000 0.000000 -90.032466 -3.306664 -1.219958 -20.435607 12.133614 -5.345748 32.031422 -10.315479 -8.843935 -3.078686 8.410747 8.188377 9.929134 -0.158035 2.906799 0.000000 0.000000 0.000000 -91.567114 -3.930634 -4.697043 -0.336402 -7.020213 -6.247699 9.235638 4.076934 9.520275 7.021610 -6.546380 29.451991 -1.398292 -1.325257 1.139131 0.000000 0.000000 0.000000 -87.810497 -3.961626 -4.327441 3.984643 2.676374 0.644252 -1.367873 1.090964 -0.106578 0.436600 0.921791 -0.315827 0.000000 0.000000 0.000000 -2.095502 0.548271 0.167333 2.835507 1.519986 -0.001918 7.299637 1.682054 12.578382 0.000000 0.000000 0.000000 -2.914115 1.210656 0.042903 1.110083 -15.528129 -2.323138 -2.967982 0.132025 -4.172772 28.626450 0.201162 -70.804767 -178.671875 -39.751004 -178.404650 0.000000 0.000000 0.000000 -1.948664 0.925135 -0.851754 0.989325 1.393924 0.675896 1.183856 4.427179 0.140984 13.564634 6.465305 72.653316 -179.750362 46.244772 -179.223822 0.000000 0.000000 0.000000 
0.655752 4.532223 -1.053364 0.000000 0.000000 0.000000 -90.034133 -3.299097 -1.213332 -20.468316 12.114707 -5.334519 32.088881 -10.321928 -8.860017 -3.110247 8.376873 8.212964 9.928741 -0.160585 2.902725 0.000000 0.000000 0.000000 -91.562258 -3.918405 -4.684783 -0.339874 -7.021509 -6.254623 9.308546 4.061207 9.518023 6.963661 -6.540790 29.473482 -1.357250 -1.325024 1.133968 0.000000 0.000000 0.000000 -87.811514 -3.957657 -4.320246 3.986139 2.668257 0.653163 -1.369132 1.089625 -0.110448 0.445430 0.922021 -0.311023 0.000000 0.000000 0.000000 -2.101513 0.550660 0.166778 2.880340 1.527201 -0.010335 7.347670 1.097237 12.654817 0.000000 0.000000 0.000000 -2.913815 1.209945 0.046832 1.113443 -15.539102 -2.313268 -2.966098 0.156386 -4.188871 28.615040 0.296495 -70.827935 -178.654977 -39.601874 -178.368888 0.000000 0.000000 0.000000 -1.965791 0.918675 -0.850868 0.990197 1.457415 0.666224 1.172405 4.411544 0.142805 13.486376 6.446453 72.707548 -179.749392 46.231078 -179.232360 0.000000 0.000000 0.000000 
0.655459 4.530378 -1.045885 0.000000 0.000000 0.000000 -90.035062 -3.284157 -1.209589 -20.506912 12.108563 -5.318591 32.158265 -10.327927 -8.879065 -3.153333 8.336707 8.252656 9.924506 -0.162702 2.901273 0.000000 0.000000 0.000000 -91.563119 -3.901933 -4.678832 -0.331307 -7.023199 -6.257002 9.364368 4.042811 9.517143 6.906815 -6.529134 29.497514 -1.321609 -1.325549 1.129528 0.000000 0.000000 0.000000 -87.811050 -3.953359 -4.318296 3.992590 2.664981 0.671173 -1.370656 1.090849 -0.112211 0.453065 0.916917 -0.314476 0.000000 0.000000 0.000000 -2.105042 0.555818 0.166385 2.912048 1.540194 -0.012896 7.400416 0.617137 12.697273 0.000000 0.000000 0.000000 -2.912079 1.211983 0.052748 1.113083 -15.542089 -2.325098 -2.949852 0.175851 -4.195204 28.536025 0.377487 -70.830858 -178.640620 -39.482950 -178.339887 0.000000 0.000000 0.000000 -1.980012 0.915060 -0.850081 0.991913 1.504092 0.662314 1.159683 4.402887 0.147618 13.412867 6.454849 72.769594 -179.752124 46.243499 -179.232606 0.000000 0.000000 0.000000 
0.655679 4.529308 -1.037395 0.000000 0.000000 0.000000 -90.033402 -3.264436 -1.206160 -20.547005 12.108740 -5.303984 32.226649 -10.337767 -8.897082 -3.198485 8.289089 8.295173 9.918078 -0.164623 2.903738 0.000000 0.000000 0.000000 -91.566097 -3.884725 -4.677642 -0.308821 -7.024208 -6.261181 9.395790 4.021501 9.518473 6.856644 -6.510594 29.532560 -1.296037 -1.327181 1.125161 0.000000 0.000000 0.000000 -87.808939 -3.949035 -4.317865 4.002751 2.666294 0.691268 -1.371259 1.095217 -0.111871 0.451135 0.911161 -0.322148 0.000000 0.000000 0.000000 -2.105093 0.564228 0.166073 2.925143 1.547269 -0.003371 7.449079 0.210625 12.724175 0.000000 0.000000 0.000000 -2.907873 1.217872 0.059346 1.110621 -15.542393 -2.357114 -2.925259 0.189787 -4.181921 28.430888 0.414286 -70.817730 -178.631904 -39.440309 -178.322101 0.000000 0.000000 0.000000 -1.988331 0.915530 -0.849577 0.993373 1.528400 0.660586 1.143946 4.396276 0.148903 13.346926 6.478583 72.825342 -179.758175 46.254126 -179.228289 0.000000 0.000000 0.000000 
